<svg xmlns="http://www.w3.org/2000/svg" xmlns:xlink="http://www.w3.org/1999/xlink" width="928.83" height="830"><g transform="translate(-191.1679229268239 -10)"><path d="M300 75h775V60l25 50-25 50v-15H300z" fill="#e5e5e5"/><path d="M560 110c0 11.05-8.95 20-20 20s-20-8.95-20-20 8.95-20 20-20 20 8.95 20 20zM697 110c0 11.05-8.95 20-20 20s-20-8.95-20-20 8.95-20 20-20 20 8.95 20 20zM982 110c0 11.05-8.95 20-20 20s-20-8.95-20-20 8.95-20 20-20 20 8.95 20 20z" fill="#de5f85"/><path d="M677 130l.14 112" fill="none"/><path d="M677 130v1.53m0 2.03v3.06m0 2.03v3.06m.02 2.05v3.05m0 2.04v3.05m0 2.03v3.05m.02 2.04v3.05m0 2.04v3.06m0 2.04v3.05m.02 2.04v3.05m0 2.03v3.06m0 2.03v3.06m.02 2.03v3.06m0 2.03v3.06m0 2.05v3.05m.02 2.04v3.05m0 2.03v3.05m0 2.04v3.05m0 2.04l.02 3.06m0 2.04v3.05m0 2.04v3.05m0 2.03l.02 3.06m0 2.03V242" stroke="#de5f85" fill="none"/><path d="M677 130l.5-.02v.02h-1v-.06z" fill="#de5f85"/><path d="M677.14 242l-4.65-14.26h9.26z" fill="#fff"/><path d="M677.66 242h-1.04l-4.82-14.76h10.65zm-4.48-13.76l3.96 12.14 3.93-12.15z" fill="#de5f85"/><path d="M821 379.58c0 75.98-64.4 137.57-143.86 137.57-79.45 0-143.85-61.6-143.85-137.57C533.3 303.6 597.7 242 677.13 242 756.6 242 821 303.6 821 379.58z" fill="#f5b5c8"/><path d="M698.44 224.58H907.7v51.6H698.43z" fill="none"/><use xlink:href="#a" transform="matrix(1,0,0,1,703.4412153236459,229.5840255623153) translate(50.525 24.6)"/><use xlink:href="#b" transform="matrix(1,0,0,1,703.4412153236459,229.5840255623153) translate(97.525 24.6)"/><path d="M519.42 310.57v137.58h69.75V310.57z" fill="none"/><path d="M589.17 448.15c-4.75 0-8.6-3.85-8.6-8.6v-51.6c0-4.74-3.85-8.6-8.6-8.6 4.75 0 8.6-3.84 8.6-8.6v-51.58c0-4.75 3.85-8.6 8.6-8.6" stroke="#000" stroke-width="2" fill="none"/><path d="M763.54 310.57v137.58h69.75V310.57z" fill="none"/><path d="M763.54 448.15c4.75 0 8.6-3.85 8.6-8.6v-51.6c0-4.74 3.85-8.6 8.6-8.6-4.75 0-8.6-3.84-8.6-8.6v-51.58c0-4.75-3.85-8.6-8.6-8.6" stroke="#000" stroke-width="2" fill="none"/><path d="M693.8 319.17c0 23.74-19.53 43-43.6 43-24.08 0-43.6-19.26-43.6-43 0-23.75 19.52-43 43.6-43 24.07 0 43.6 19.25 43.6 43z" fill="#ffdba9"/><use xlink:href="#c" transform="matrix(1,0,0,1,611.6050198150594,281.17531223266906) translate(5 41.6)"/><use xlink:href="#d" transform="matrix(1,0,0,1,611.6050198150594,281.17531223266906) translate(61 41.6)"/><path d="M763.54 379.36c0 23.74-19.52 43-43.6 43-24.07 0-43.6-19.26-43.6-43 0-23.75 19.53-43 43.6-43 24.08 0 43.6 19.25 43.6 43z" fill="#c7e8ac"/><use xlink:href="#c" transform="matrix(1,0,0,1,681.3540290620871,341.3651466814151) translate(5 41.6)"/><use xlink:href="#e" transform="matrix(1,0,0,1,681.3540290620871,341.3651466814151) translate(61 41.6)"/><path d="M711.23 422.35c0 23.74-19.52 43-43.6 43-24.07 0-43.6-19.26-43.6-43s19.53-43 43.6-43c24.08 0 43.6 19.26 43.6 43z" fill="#5abaa7"/><use xlink:href="#c" transform="matrix(1,0,0,1,629.0422721268162,384.3578855733767) translate(4.524999999999999 41.6)"/><use xlink:href="#f" transform="matrix(1,0,0,1,629.0422721268162,384.3578855733767) translate(60.525 41.6)"/><path d="M402 768.4h139.5V820H402z" fill="#83bbe5"/><use xlink:href="#g" transform="matrix(1,0,0,1,407.00792602377805,773.4087133296462) translate(45.724999999999994 14.4)"/><use xlink:href="#h" transform="matrix(1,0,0,1,407.00792602377805,773.4087133296462) translate(10.049999999999997 36)"/><use xlink:href="#d" transform="matrix(1,0,0,1,407.00792602377805,773.4087133296462) translate(107.95 36)"/><path d="M611.25 768.4h139.5V820h-139.5z" fill="#83bbe5"/><use xlink:href="#g" transform="matrix(1,0,0,1,616.2549537648613,773.4087133296462) translate(45.724999999999994 14.4)"/><use xlink:href="#h" transform="matrix(1,0,0,1,616.2549537648613,773.4087133296462) translate(10.049999999999997 36)"/><use xlink:href="#e" transform="matrix(1,0,0,1,616.2549537648613,773.4087133296462) translate(107.95 36)"/><path d="M820.5 768.4H960V820H820.5z" fill="#83bbe5"/><use xlink:href="#g" transform="matrix(1,0,0,1,825.5019815059445,773.4087133296462) translate(45.724999999999994 14.4)"/><use xlink:href="#h" transform="matrix(1,0,0,1,825.5019815059445,773.4087133296462) translate(9.574999999999996 36)"/><use xlink:href="#f" transform="matrix(1,0,0,1,825.5019815059445,773.4087133296462) translate(107.475 36)"/><path d="M491.03 751.52c0 9.5-7.8 17.2-17.43 17.2-9.63 0-17.44-7.7-17.44-17.2s7.8-17.2 17.44-17.2c9.63 0 17.43 7.7 17.43 17.2z" fill="#ffdba9"/><use xlink:href="#i" transform="matrix(1,0,0,1,461.15979371631124,739.3194092056136) translate(6.5 16.1)"/><path d="M698.44 751.2c0 9.5-7.8 17.2-17.44 17.2-9.63 0-17.43-7.7-17.43-17.2S671.37 734 681 734c9.63 0 17.44 7.7 17.44 17.2z" fill="#c7e8ac"/><use xlink:href="#j" transform="matrix(1,0,0,1,668.566710700132,739.014522216077) translate(6.5 16.1)"/><path d="M872.8 751.2c0 9.5-7.8 17.2-17.42 17.2-9.63 0-17.44-7.7-17.44-17.2s7.8-17.2 17.44-17.2c9.63 0 17.43 7.7 17.43 17.2z" fill="#c7e8ac"/><use xlink:href="#j" transform="matrix(1,0,0,1,842.9392338177015,739.014522216077) translate(6.5 16.1)"/><path d="M942.56 751.2c0 9.5-7.8 17.2-17.43 17.2-9.63 0-17.44-7.7-17.44-17.2s7.8-17.2 17.43-17.2c9.63 0 17.43 7.7 17.43 17.2z" fill="#5abaa7"/><use xlink:href="#k" transform="matrix(1,0,0,1,912.688243064729,739.014522216077) translate(6.0249999999999995 16.1)"/><path d="M557 30h240v60H557z" fill="none"/><use xlink:href="#l" transform="matrix(1,0,0,1,562,35) translate(26.93827160493828 31.22222222222222)"/><use xlink:href="#m" transform="matrix(1,0,0,1,562,35) translate(108.17283950617285 31.22222222222222)"/><path d="M468.1 505.23l53.58 53.57 16.07 37.5-37.5-16.07-53.57-53.57-16.07-37.5zM840.33 558.6L893.9 505l37.5-16.07-16.07 37.5-53.57 53.57-37.5 16.07zM642.86 610.54h76.28l38.15 15.04-38.16 15.05h-76.28l-38.15-15.05z" stroke="#666" stroke-width="2" fill="#fff"/><path d="M463.3 544.7l10.3 189.62" stroke="#19967d" stroke-width="2" fill="none"/><path d="M464.28 544.26l.02.38-2 .1-.14-2.6zM473.6 734.32l-5.4-14 9.25-.5z" fill="#19967d"/><path d="M474.6 734.45l-1-.13-1.02.13-5.8-15.05 12-.65zm-4.98-13.2l3.8 9.84 2.7-10.2z" fill="#19967d"/><path d="M668.25 641.63L681 734" stroke="#19967d" stroke-width="2" fill="none"/><path d="M669.24 641.5l-1.98.27-.16-1.14h2.02zM681 734l-6.54-13.48 9.2-1.27z" fill="#19967d"/><path d="M682 734.14l-1-.13-1.04.15-7-14.44 11.9-1.63zm-6.04-12.82l4.6 9.5 1.86-10.4z" fill="#19967d"/><path d="M868.26 574.94L855.38 734" stroke="#19967d" stroke-width="2" fill="none"/><path d="M869.25 575.02l-2-.16.04-.37 2.17-2.2zM861.15 720.17L855.38 734l-3.47-14.58z" fill="#19967d"/><path d="M862.6 719.28l-6.2 14.87-1.02-.14-1 .15-3.76-15.84zm-6.96 11.5l4.06-9.73-6.5-.52z" fill="#19967d"/><path d="M480.53 516.24l81.76-53.85" stroke="#19967d" stroke-width="2" fill="none"/><path d="M495 512.26l-14.47 3.98 9.36-11.72z" fill="#19967d"/><path d="M496.58 512.86l-16.35 4.5-1.04-1.05 10.77-13.48zm-13.35 1.6l10.17-2.8-3.6-5.44zM562.92 463.18l-.08.05-.58-.88z" fill="#19967d"/><path d="M663.56 609.54v-93" stroke="#19967d" stroke-width="2" fill="none"/><path d="M663.56 609.54l-4.64-14.27h9.27z" fill="#19967d"/><path d="M664.3 610.54h-1.47l-5.28-16.27h12.02zm-4-14.27l3.26 10.03 3.26-10.03zM663.56 516.53h-1v-.1z" fill="#19967d"/><path d="M852.34 545.17L791.54 463" stroke="#19967d" stroke-width="2" fill="none"/><path d="M852.34 545.17l-12.2-8.7 7.44-5.53z" fill="#19967d"/><path d="M853.48 545.44l-1.03 1.03-14.03-10 9.67-7.15zm-11.65-9l8.58 6.13-3.33-10zM792.33 462.4l-.8.6.33-.4.3-.4z" fill="#19967d"/><path d="M300 534.13h209.25v51.6H300z" fill="none"/><use xlink:href="#n" transform="matrix(1,0,0,1,305,539.131745584438) translate(71 24.6)"/><path d="M868.26 574.94L925.13 734" stroke="#19967d" stroke-width="2" fill="none"/><path d="M869.2 574.6l-1.9.67-.2-.6 1.57-1.56zM925.13 734l-9.17-11.86 8.73-3.12z" fill="#19967d"/><path d="M926.13 734.15l-1-.14-1.15.16-9.65-12.5 11.32-4.04zm-8.54-11.53l6.44 8.35-.3-10.54z" fill="#19967d"/><path d="M509.26 546.4l38.4 6.54 33.3 4.25 29.17 2.47 25.8 1.1 22.98.04 20.66-.83 18.67-1.55 17-2.13 15.54-2.62 14.3-3.03 13.25-3.4 12.3-3.7 11.5-3.98 10.76-4.25 10.13-4.5 9.58-4.74 9.06-4.97 8.63-5.2 8.22-5.46 7.86-5.7 7.54-5.98 7.26-6.25 6.98-6.54 6.75-6.88 6.52-7.24 6.32-7.63 6.13-8.06 5.95-8.55 5.78-9.1 5.62-9.72 5.44-10.4 5.28-11.2 5.1-12.13 4.92-13.2 4.7-14.46 4.48-16 4.2-17.87 3.87-20.3 3.5-23.66 3.08-29.2 2.86-47.23L960 180" stroke="#c92d39" stroke-width="2" fill="none"/><path d="M509.43 545.4l-.18 1.08v-1.1z" fill="#c92d39"/><path d="M960 180l4.04 14.44-9.26-.38z" stroke="#c92d39" stroke-width="2" fill="#c92d39"/><path d="M473.6 734.32l15.04-164.3" stroke="#c92d39" stroke-width="2" fill="none"/><path d="M474.6 734.4v.05l-1-.13-1.02.13.02-.22zM491.95 584.66l-9.23-.84 5.92-13.8z" fill="#c92d39"/><path d="M489.55 569.53l3.68 16.25-11.97-1.1 7.04-16.4zm-5.37 13.42l6.5.6-2.34-10.3z" fill="#c92d39"/><path d="M681 734l14.2-92.37" stroke="#c92d39" stroke-width="2" fill="none"/><path d="M681 734l-1.03.15.05-.3zM697.62 656.44l-9.16-1.4 6.75-13.4z" fill="#c92d39"/><path d="M698.83 657.63l-11.88-1.82 7.64-15.17h1.46zm-8.86-3.38l6.44 1-1.68-10.42z" fill="#c92d39"/><path d="M855.38 734l42.45-188.64" stroke="#c92d39" stroke-width="2" fill="none"/><path d="M855.38 734l-1.06.15.08-.36zM899.22 560.3l-9.04-2.04 7.65-12.9z" fill="#c92d39"/><path d="M900.34 561.57l-11.73-2.64 8.43-14.2 1.6-1.58zm-8.6-3.98l6.36 1.42-.98-10.5z" fill="#c92d39"/><path d="M925.13 734L899.9 543.3" stroke="#c92d39" stroke-width="2" fill="none"/><path d="M926.15 734.15l-1.02-.14 1-.12zM906.36 556.84l-9.2 1.2 2.73-14.74z" fill="#c92d39"/><path d="M907.85 557.65l-11.92 1.57 3.03-16.4 1.22-1.23zm-9.45-.77l6.46-.85-4.55-9.52z" fill="#c92d39"/><path d="M879.48 518.03l-5.12-5.53-2.36-3.08-1.45-2.3-.98-1.92-.7-1.7-.47-1.6-.3-1.52-.18-1.54-.04-1.57.12-1.68.3-1.84.52-2.1.87-2.47 1.4-3.12 2.43-4.2 4.5-6.46 10.63-12.54.5-.54" stroke="#c92d39" stroke-width="2" fill="none"/><path d="M880.82 518.1l-1.42 1.42-.7-.87 1.56-1.25z" fill="#c92d39"/><path d="M696.7 609.53l.1-4.14.2-3.6.34-3.15.42-2.8.48-2.53.54-2.3.58-2.1.64-1.96.67-1.82.72-1.7.75-1.62.8-1.54.85-1.47.9-1.4.96-1.37 1-1.34 1.1-1.33 1.16-1.3 1.26-1.28 1.38-1.3 1.5-1.3 1.67-1.3 1.87-1.37 2.12-1.4 2.48-1.5 2.95-1.63 3.67-1.82 4.9-2.17 7.62-3 53.1-19.2 11.8-5.27 10.7-5.3.27-.14" stroke="#c92d39" stroke-width="2" fill="none"/><path d="M697.7 609.62l-.08.92h-2l.1-1.1z" fill="#c92d39"/><path d="M220 260h160v29H220z" fill="none"/><g><use xlink:href="#o" transform="matrix(1,0,0,1,225,265) translate(11.075000000000003 14.4)"/><use xlink:href="#p" transform="matrix(1,0,0,1,225,265) translate(59.025000000000006 14.4)"/><use xlink:href="#q" transform="matrix(1,0,0,1,225,265) translate(99.925 14.4)"/></g><path d="M376.62 289H222.17" stroke="#19967d" stroke-width="2" fill="none"/><path d="M379.62 289h-3v-1h3z" fill="#19967d"/><path d="M222.17 289l14.26-4.64v9.28z" stroke="#19967d" stroke-width="2" fill="#19967d"/><path d="M220 320h160v29H220z" fill="none"/><g><use xlink:href="#r" transform="matrix(1,0,0,1,225,325) translate(22.25 14.4)"/><use xlink:href="#s" transform="matrix(1,0,0,1,225,325) translate(68.75 14.4)"/><use xlink:href="#q" transform="matrix(1,0,0,1,225,325) translate(88.75 14.4)"/></g><path d="M220 349h156.04" stroke="#c92d39" stroke-width="2" fill="none"/><path d="M376.04 349l-14.26 4.64v-9.28z" stroke="#c92d39" stroke-width="2" fill="#c92d39"/><defs><path d="M185-189c-5-48-123-54-124 2 14 75 158 14 163 119 3 78-121 87-175 55-17-10-28-26-33-46l33-7c5 56 141 63 141-1 0-78-155-14-162-118-5-82 145-84 179-34 5 7 8 16 11 25" id="t"/><path d="M59-47c-2 24 18 29 38 22v24C64 9 27 4 27-40v-127H5v-23h24l9-43h21v43h35v23H59v120" id="u"/><path d="M141-36C126-15 110 5 73 4 37 3 15-17 15-53c-1-64 63-63 125-63 3-35-9-54-41-54-24 1-41 7-42 31l-33-3c5-37 33-52 76-52 45 0 72 20 72 64v82c-1 20 7 32 28 27v20c-31 9-61-2-59-35zM48-53c0 20 12 33 32 33 41-3 63-29 60-74-43 2-92-5-92 41" id="v"/><path d="M100-194c63 0 86 42 84 106H49c0 40 14 67 53 68 26 1 43-12 49-29l28 8c-11 28-37 45-77 45C44 4 14-33 15-96c1-61 26-98 85-98zm52 81c6-60-76-77-97-28-3 7-6 17-6 28h103" id="w"/><g id="a"><use transform="matrix(0.05,0,0,0.05,0,0)" xlink:href="#t"/><use transform="matrix(0.05,0,0,0.05,12,0)" xlink:href="#u"/><use transform="matrix(0.05,0,0,0.05,17,0)" xlink:href="#v"/><use transform="matrix(0.05,0,0,0.05,27,0)" xlink:href="#u"/><use transform="matrix(0.05,0,0,0.05,32,0)" xlink:href="#w"/></g><path d="M140-251c81 0 123 46 123 126C263-46 219 4 140 4 59 4 17-45 17-125s42-126 123-126zm0 227c63 0 89-41 89-101s-29-99-89-99c-61 0-89 39-89 99S79-25 140-24" id="x"/><path d="M115-194c53 0 69 39 70 98 0 66-23 100-70 100C84 3 66-7 56-30L54 0H23l1-261h32v101c10-23 28-34 59-34zm-8 174c40 0 45-34 45-75 0-40-5-75-45-74-42 0-51 32-51 76 0 43 10 73 51 73" id="y"/><path d="M24-231v-30h32v30H24zM-9 49c24 4 33-6 33-30v-209h32V24c2 40-23 58-65 49V49" id="z"/><path d="M96-169c-40 0-48 33-48 73s9 75 48 75c24 0 41-14 43-38l32 2c-6 37-31 61-74 61-59 0-76-41-82-99-10-93 101-131 147-64 4 7 5 14 7 22l-32 3c-4-21-16-35-41-35" id="A"/><g id="b"><use transform="matrix(0.05,0,0,0.05,0,0)" xlink:href="#x"/><use transform="matrix(0.05,0,0,0.05,14,0)" xlink:href="#y"/><use transform="matrix(0.05,0,0,0.05,24,0)" xlink:href="#z"/><use transform="matrix(0.05,0,0,0.05,27.950000000000003,0)" xlink:href="#w"/><use transform="matrix(0.05,0,0,0.05,37.95,0)" xlink:href="#A"/><use transform="matrix(0.05,0,0,0.05,46.95,0)" xlink:href="#u"/></g><path d="M100-194c62-1 85 37 85 99 1 63-27 99-86 99S16-35 15-95c0-66 28-99 85-99zM99-20c44 1 53-31 53-75 0-43-8-75-51-75s-53 32-53 75 10 74 51 75" id="B"/><path d="M115-194c55 1 70 41 70 98S169 2 115 4C84 4 66-9 55-30l1 105H24l-1-265h31l2 30c10-21 28-34 59-34zm-8 174c40 0 45-34 45-75s-6-73-45-74c-42 0-51 32-51 76 0 43 10 73 51 73" id="C"/><g id="c"><use transform="matrix(0.05,0,0,0.05,0,0)" xlink:href="#t"/><use transform="matrix(0.05,0,0,0.05,12,0)" xlink:href="#A"/><use transform="matrix(0.05,0,0,0.05,21,0)" xlink:href="#B"/><use transform="matrix(0.05,0,0,0.05,31,0)" xlink:href="#C"/><use transform="matrix(0.05,0,0,0.05,41,0)" xlink:href="#w"/></g><path d="M205 0l-28-72H64L36 0H1l101-248h38L239 0h-34zm-38-99l-47-123c-12 45-31 82-46 123h93" id="D"/><use transform="matrix(0.05,0,0,0.05,0,0)" xlink:href="#D" id="d"/><path d="M160-131c35 5 61 23 61 61C221 17 115-2 30 0v-248c76 3 177-17 177 60 0 33-19 50-47 57zm-97-11c50-1 110 9 110-42 0-47-63-36-110-37v79zm0 115c55-2 124 14 124-45 0-56-70-42-124-44v89" id="E"/><use transform="matrix(0.05,0,0,0.05,0,0)" xlink:href="#E" id="e"/><path d="M212-179c-10-28-35-45-73-45-59 0-87 40-87 99 0 60 29 101 89 101 43 0 62-24 78-52l27 14C228-24 195 4 139 4 59 4 22-46 18-125c-6-104 99-153 187-111 19 9 31 26 39 46" id="F"/><use transform="matrix(0.05,0,0,0.05,0,0)" xlink:href="#F" id="f"/><path d="M137 0h-34L2-248h35l83 218 83-218h36" id="G"/><path d="M24-231v-30h32v30H24zM24 0v-190h32V0H24" id="H"/><path d="M206 0h-36l-40-164L89 0H53L-1-190h32L70-26l43-164h34l41 164 42-164h31" id="I"/><g id="g"><use transform="matrix(0.05,0,0,0.05,0,0)" xlink:href="#G"/><use transform="matrix(0.05,0,0,0.05,11.65,0)" xlink:href="#H"/><use transform="matrix(0.05,0,0,0.05,15.600000000000001,0)" xlink:href="#w"/><use transform="matrix(0.05,0,0,0.05,25.6,0)" xlink:href="#I"/></g><path d="M210-169c-67 3-38 105-44 169h-31v-121c0-29-5-50-35-48C34-165 62-65 56 0H25l-1-190h30c1 10-1 24 2 32 10-44 99-50 107 0 11-21 27-35 58-36 85-2 47 119 55 194h-31v-121c0-29-5-49-35-48" id="J"/><path d="M117-194c89-4 53 116 60 194h-32v-121c0-31-8-49-39-48C34-167 62-67 57 0H25l-1-190h30c1 10-1 24 2 32 11-22 29-35 61-36" id="K"/><g id="h"><use transform="matrix(0.05,0,0,0.05,0,0)" xlink:href="#F"/><use transform="matrix(0.05,0,0,0.05,12.950000000000001,0)" xlink:href="#B"/><use transform="matrix(0.05,0,0,0.05,22.950000000000003,0)" xlink:href="#J"/><use transform="matrix(0.05,0,0,0.05,37.900000000000006,0)" xlink:href="#C"/><use transform="matrix(0.05,0,0,0.05,47.900000000000006,0)" xlink:href="#B"/><use transform="matrix(0.05,0,0,0.05,57.900000000000006,0)" xlink:href="#K"/><use transform="matrix(0.05,0,0,0.05,67.9,0)" xlink:href="#w"/><use transform="matrix(0.05,0,0,0.05,77.9,0)" xlink:href="#K"/><use transform="matrix(0.05,0,0,0.05,87.9,0)" xlink:href="#u"/></g><use transform="matrix(0.05,0,0,0.05,0,0)" xlink:href="#D" id="i"/><use transform="matrix(0.05,0,0,0.05,0,0)" xlink:href="#E" id="j"/><use transform="matrix(0.05,0,0,0.05,0,0)" xlink:href="#F" id="k"/><g id="l"><use transform="matrix(0.08641975308641976,0,0,0.08641975308641976,0,0)" xlink:href="#t"/><use transform="matrix(0.08641975308641976,0,0,0.08641975308641976,20.740740740740744,0)" xlink:href="#u"/><use transform="matrix(0.08641975308641976,0,0,0.08641975308641976,29.382716049382726,0)" xlink:href="#v"/><use transform="matrix(0.08641975308641976,0,0,0.08641975308641976,46.66666666666667,0)" xlink:href="#u"/><use transform="matrix(0.08641975308641976,0,0,0.08641975308641976,55.308641975308646,0)" xlink:href="#w"/></g><path d="M135-143c-3-34-86-38-87 0 15 53 115 12 119 90S17 21 10-45l28-5c4 36 97 45 98 0-10-56-113-15-118-90-4-57 82-63 122-42 12 7 21 19 24 35" id="L"/><path d="M114-163C36-179 61-72 57 0H25l-1-190h30c1 12-1 29 2 39 6-27 23-49 58-41v29" id="M"/><g id="m"><use transform="matrix(0.08641975308641976,0,0,0.08641975308641976,0,0)" xlink:href="#L"/><use transform="matrix(0.08641975308641976,0,0,0.08641975308641976,15.555555555555557,0)" xlink:href="#u"/><use transform="matrix(0.08641975308641976,0,0,0.08641975308641976,24.19753086419753,0)" xlink:href="#M"/><use transform="matrix(0.08641975308641976,0,0,0.08641975308641976,34.48148148148148,0)" xlink:href="#w"/><use transform="matrix(0.08641975308641976,0,0,0.08641975308641976,51.76543209876543,0)" xlink:href="#v"/><use transform="matrix(0.08641975308641976,0,0,0.08641975308641976,69.04938271604938,0)" xlink:href="#J"/></g><path d="M30 0v-248h33v221h125V0H30" id="N"/><g id="n"><use transform="matrix(0.05,0,0,0.05,0,0)" xlink:href="#N"/><use transform="matrix(0.05,0,0,0.05,10,0)" xlink:href="#w"/><use transform="matrix(0.05,0,0,0.05,20,0)" xlink:href="#K"/><use transform="matrix(0.05,0,0,0.05,30,0)" xlink:href="#L"/><use transform="matrix(0.05,0,0,0.05,39,0)" xlink:href="#w"/><use transform="matrix(0.05,0,0,0.05,49,0)" xlink:href="#L"/></g><path d="M233-177c-1 41-23 64-60 70L243 0h-38l-65-103H63V0H30v-248c88 3 205-21 203 71zM63-129c60-2 137 13 137-47 0-61-80-42-137-45v92" id="O"/><path d="M85-194c31 0 48 13 60 33l-1-100h32l1 261h-30c-2-10 0-23-3-31C134-8 116 4 85 4 32 4 16-35 15-94c0-66 23-100 70-100zm9 24c-40 0-46 34-46 75 0 40 6 74 45 74 42 0 51-32 51-76 0-42-9-74-50-73" id="P"/><g id="o"><use transform="matrix(0.05,0,0,0.05,0,0)" xlink:href="#O"/><use transform="matrix(0.05,0,0,0.05,12.950000000000001,0)" xlink:href="#w"/><use transform="matrix(0.05,0,0,0.05,22.950000000000003,0)" xlink:href="#v"/><use transform="matrix(0.05,0,0,0.05,32.95,0)" xlink:href="#P"/></g><path d="M101-234c-31-9-42 10-38 44h38v23H63V0H32v-167H5v-23h27c-7-52 17-82 69-68v24" id="Q"/><g id="p"><use transform="matrix(0.05,0,0,0.05,0,0)" xlink:href="#Q"/><use transform="matrix(0.05,0,0,0.05,5,0)" xlink:href="#M"/><use transform="matrix(0.05,0,0,0.05,10.95,0)" xlink:href="#B"/><use transform="matrix(0.05,0,0,0.05,20.95,0)" xlink:href="#J"/></g><g id="q"><use transform="matrix(0.05,0,0,0.05,0,0)" xlink:href="#L"/><use transform="matrix(0.05,0,0,0.05,9,0)" xlink:href="#u"/><use transform="matrix(0.05,0,0,0.05,14,0)" xlink:href="#v"/><use transform="matrix(0.05,0,0,0.05,24,0)" xlink:href="#u"/><use transform="matrix(0.05,0,0,0.05,29,0)" xlink:href="#w"/></g><path d="M266 0h-40l-56-210L115 0H75L2-248h35L96-30l15-64 43-154h32l59 218 59-218h35" id="R"/><g id="r"><use transform="matrix(0.05,0,0,0.05,0,0)" xlink:href="#R"/><use transform="matrix(0.05,0,0,0.05,16.599999999999998,0)" xlink:href="#M"/><use transform="matrix(0.05,0,0,0.05,22.549999999999997,0)" xlink:href="#H"/><use transform="matrix(0.05,0,0,0.05,26.499999999999996,0)" xlink:href="#u"/><use transform="matrix(0.05,0,0,0.05,31.499999999999996,0)" xlink:href="#w"/></g><g id="s"><use transform="matrix(0.05,0,0,0.05,0,0)" xlink:href="#u"/><use transform="matrix(0.05,0,0,0.05,5,0)" xlink:href="#B"/></g></defs></g></svg>